<svg width="119" height="32" viewBox="0 0 119 32" fill="none" xmlns="http://www.w3.org/2000/svg">
<path d="M21.8987 10C24.0388 10 25.7339 10.5054 26.9841 11.5162C28.2554 12.5102 28.8911 14.0096 28.8911 16.0144V23.7978H23.9329V16.6209C23.9329 15.5427 23.6468 14.7425 23.0747 14.2202C22.5238 13.6811 21.7292 13.4116 20.691 13.4116C19.5256 13.4116 18.6039 13.7148 17.9258 14.3213C17.2478 14.911 16.9087 15.7954 16.9087 16.9747V23.7978H11.9505V16.6209C11.9505 14.4813 10.8699 13.4116 8.70864 13.4116C7.56444 13.4116 6.65332 13.7148 5.97527 14.3213C5.29723 14.911 4.9582 15.7954 4.9582 16.9747V23.7978H0V10.2022H4.73572V11.769C5.37139 11.1961 6.14478 10.7581 7.05591 10.4549C7.98822 10.1516 9.00529 10 10.1071 10C11.3149 10 12.4061 10.1937 13.3808 10.5812C14.3555 10.9519 15.1395 11.4994 15.7328 12.2238C16.432 11.5162 17.3113 10.9687 18.3708 10.5812C19.4514 10.1937 20.6274 10 21.8987 10Z" fill="#E6E6E6"/>
<path d="M49 17.0505C49 17.1011 48.9682 17.4549 48.9046 18.1119H35.9688C36.2019 18.9543 36.7528 19.6197 37.6216 20.1083C38.4903 20.5969 39.5709 20.8412 40.8635 20.8412C41.7534 20.8412 42.5374 20.7401 43.2154 20.5379C43.9147 20.3189 44.5609 19.9819 45.1542 19.5271L47.7922 21.8014C46.1819 23.2671 43.8299 24 40.7363 24C38.8081 24 37.1024 23.7052 35.6192 23.1155C34.136 22.509 32.9918 21.6751 32.1866 20.6137C31.3814 19.5523 30.9788 18.3478 30.9788 17C30.9788 15.6691 31.3708 14.4729 32.1548 13.4116C32.96 12.3333 34.0512 11.4994 35.4285 10.9097C36.827 10.3032 38.3844 10 40.1007 10C41.7746 10 43.2896 10.2864 44.6457 10.8592C46.0018 11.432 47.0612 12.2575 47.824 13.3357C48.608 14.3971 49 15.6354 49 17.0505ZM40.1324 12.9819C39.0094 12.9819 38.0665 13.2347 37.3037 13.7401C36.5409 14.2455 36.0748 14.9362 35.9053 15.8123H44.3278C44.1583 14.9531 43.6922 14.2708 42.9294 13.7653C42.1666 13.2431 41.2343 12.9819 40.1324 12.9819Z" fill="#E6E6E6"/>
<path d="M85.0861 7.84803L82.0182 23.2735H77.7747L78.0615 21.7539C76.7808 22.9199 75.2038 23.5029 73.3306 23.5029C72.1264 23.5029 71.0177 23.2257 70.0047 22.6714C68.9916 22.1171 68.1792 21.3238 67.5675 20.2916C66.975 19.2403 66.6787 18.0074 66.6787 16.593C66.6787 14.8918 67.0514 13.3626 67.7969 12.0055C68.5615 10.6292 69.5937 9.55879 70.8935 8.79421C72.1933 8.01051 73.6269 7.61866 75.1943 7.61866C77.5645 7.61866 79.237 8.3928 80.2119 9.94108L80.6133 7.84803H85.0861ZM74.7068 19.8042C75.5861 19.8042 76.3698 19.594 77.0579 19.1734C77.7461 18.7338 78.2813 18.1317 78.6636 17.3671C79.0459 16.6025 79.237 15.7233 79.237 14.7293C79.237 13.678 78.9216 12.8465 78.2908 12.2348C77.6792 11.6232 76.819 11.3173 75.7104 11.3173C74.8311 11.3173 74.0474 11.5372 73.3593 11.9768C72.6711 12.3973 72.1359 12.9899 71.7536 13.7544C71.3713 14.519 71.1802 15.3983 71.1802 16.3923C71.1802 17.4436 71.486 18.2751 72.0977 18.8867C72.7285 19.4984 73.5982 19.8042 74.7068 19.8042Z" fill="url(#paint0_linear_2:42)"/>
<path d="M90.6321 23.5029C89.2941 23.5029 88.0229 23.3595 86.8187 23.0728C85.6336 22.767 84.7065 22.3751 84.0375 21.8973L85.7579 18.6573C86.4269 19.097 87.2392 19.4506 88.195 19.7182C89.1698 19.9858 90.1447 20.1196 91.1195 20.1196C92.1326 20.1196 92.8876 19.9954 93.3846 19.7469C93.8816 19.4793 94.1301 19.1065 94.1301 18.6287C94.1301 18.2464 93.9102 17.9692 93.4706 17.7972C93.031 17.6252 92.3237 17.4436 91.3489 17.2524C90.2402 17.0422 89.3227 16.8128 88.5964 16.5643C87.8891 16.3158 87.2679 15.9144 86.7327 15.3601C86.2166 14.7866 85.9586 14.0125 85.9586 13.0376C85.9586 11.3364 86.6658 10.008 88.0803 9.05225C89.5139 8.09652 91.3871 7.61866 93.7 7.61866C94.7704 7.61866 95.8121 7.73335 96.8252 7.96272C97.8383 8.1921 98.6984 8.50749 99.4057 8.90889L97.8001 12.1775C96.5385 11.3938 95.0189 11.0019 93.2412 11.0019C92.2664 11.0019 91.5209 11.1453 91.0048 11.432C90.5078 11.7187 90.2593 12.0819 90.2593 12.5216C90.2593 12.923 90.4792 13.2192 90.9188 13.4104C91.3584 13.5824 92.0943 13.7736 93.1265 13.9838C94.2161 14.1941 95.1049 14.4235 95.793 14.6719C96.5003 14.9013 97.1119 15.2932 97.628 15.8475C98.1441 16.4018 98.4022 17.1568 98.4022 18.1126C98.4022 19.8329 97.6758 21.1614 96.2231 22.098C94.7895 23.0346 92.9258 23.5029 90.6321 23.5029Z" fill="url(#paint1_linear_2:42)"/>
<path d="M110.595 14.5573L115.899 23.2735H110.71L107.04 17.2811L104.316 19.5462L103.57 23.2735H99.0975L103.341 1.99896H107.814L105.434 13.8978L112.831 7.84803H118.652L110.595 14.5573Z" fill="url(#paint2_linear_2:42)"/>
<path d="M69.7579 0.260745C69.8694 0.386831 69.9494 0.694374 69.9981 1.18337C70.0794 1.66912 70.1158 2.2005 70.1072 2.77749C70.0986 3.35449 70.0561 3.92116 69.9795 4.47748C69.9329 5.0034 69.8524 5.35435 69.7379 5.53035C69.6535 5.67593 69.0547 5.79037 67.9417 5.87367C66.8586 5.92655 65.2938 5.94505 63.2474 5.92916C63.3528 6.98866 63.4716 8.34861 63.6038 10.009C63.736 11.6694 63.8478 13.4554 63.939 15.3668C64.0601 17.2478 64.1663 19.144 64.2576 21.0554C64.3814 22.9635 64.4714 24.6967 64.5275 26.255C64.5836 27.8132 64.6113 29.0862 64.6106 30.074C64.6099 31.0617 64.5797 31.586 64.5197 31.6468C64.3972 31.7413 64.1646 31.7233 63.8218 31.5928C63.5143 31.4862 63.1838 31.3133 62.8302 31.0742C62.4766 30.835 62.1393 30.5942 61.8184 30.3518C61.5274 30.0789 61.3221 29.8387 61.2025 29.6311C61.159 29.5257 61.041 29.0025 60.8484 28.0614C60.6885 27.117 60.488 25.9298 60.2468 24.4997C60.0055 23.0697 59.7318 21.4782 59.4255 19.7254C59.1192 17.9725 58.8142 16.2333 58.5106 14.5076C58.207 12.7819 57.8979 11.1666 57.5832 9.66148C57.3012 8.15314 57.0612 6.90127 56.8633 5.90585C54.6236 5.93662 53.0045 5.90565 52.0058 5.81296C51.0072 5.72026 50.4371 5.62608 50.2957 5.53041C50.1543 5.43474 50.0034 5.24399 49.843 4.95815C49.6473 4.64839 49.4842 4.33539 49.3538 4.01914C49.2234 3.70289 49.1447 3.40893 49.1177 3.13726C49.0553 2.84168 49.069 2.64826 49.1589 2.55701C49.2188 2.49618 49.7686 2.38662 50.8082 2.22831C51.8152 2.07326 53.0671 1.89384 54.5639 1.69005C56.0608 1.48626 57.6733 1.28468 59.4014 1.08532C61.1623 0.882702 62.7938 0.706666 64.296 0.55721C65.7983 0.407755 67.0583 0.309833 68.0761 0.263446C69.1239 0.186644 69.6845 0.185743 69.7579 0.260745Z" fill="url(#paint3_linear_2:42)"/>
<defs>
<linearGradient id="paint0_linear_2:42" x1="66.6787" y1="1.99896" x2="78.7578" y2="36.1105" gradientUnits="userSpaceOnUse">
<stop stop-color="#FFC107"/>
<stop offset="1" stop-color="#FF59F8"/>
</linearGradient>
<linearGradient id="paint1_linear_2:42" x1="66.6787" y1="1.99896" x2="78.7578" y2="36.1105" gradientUnits="userSpaceOnUse">
<stop stop-color="#FFC107"/>
<stop offset="1" stop-color="#FF59F8"/>
</linearGradient>
<linearGradient id="paint2_linear_2:42" x1="66.6787" y1="1.99896" x2="78.7578" y2="36.1105" gradientUnits="userSpaceOnUse">
<stop stop-color="#FFC107"/>
<stop offset="1" stop-color="#FF59F8"/>
</linearGradient>
<linearGradient id="paint3_linear_2:42" x1="44.0839" y1="-1.71187" x2="68.8531" y2="36.8124" gradientUnits="userSpaceOnUse">
<stop stop-color="#FFC107"/>
<stop offset="1" stop-color="#FF59F8"/>
</linearGradient>
</defs>
</svg>
